<?xml version="1.0" encoding="utf-8"?>
<!-- Generator: Adobe Illustrator 15.0.0, SVG Export Plug-In . SVG Version: 6.00 Build 0)  -->
<!DOCTYPE svg PUBLIC "-//W3C//DTD SVG 1.1//EN" "http://www.w3.org/Graphics/SVG/1.1/DTD/svg11.dtd">
<svg version="1.1" id="Layer_1" xmlns="http://www.w3.org/2000/svg" xmlns:xlink="http://www.w3.org/1999/xlink" x="0px" y="0px"
	 width="250.488px" height="79.99px" viewBox="0 0 250.488 79.99" enable-background="new 0 0 250.488 79.99" xml:space="preserve">
<g id="Layer_1_1_">
</g>
<path fill="#818181" d="M21.539,16.552v-1.723c0-0.259,0.012-0.458,0.036-0.601c0.023-0.141,0.077-0.281,0.163-0.418
	c0.087-0.137,0.223-0.23,0.412-0.285c0.188-0.052,0.444-0.079,0.761-0.079h1.72V9.999h-2.754c-1.593,0-2.736,0.378-3.434,1.132
	c-0.693,0.758-1.043,1.873-1.043,3.345v2.074h-2.062v3.447H17.4v9.999h4.14v-9.999h2.753l0.365-3.446L21.539,16.552L21.539,16.552z"
	/>
<path fill="#818181" d="M69.991,13.808c-0.787,0.338-1.574,0.548-2.359,0.634c0.889-0.534,1.489-1.287,1.804-2.259
	c-0.814,0.48-1.682,0.812-2.604,0.99c-0.812-0.863-1.811-1.297-2.995-1.297c-1.135,0-2.1,0.399-2.9,1.198
	c-0.796,0.8-1.197,1.767-1.197,2.898c0,0.306,0.033,0.619,0.102,0.94c-1.674-0.085-3.241-0.506-4.714-1.263
	c-1.466-0.756-2.712-1.766-3.732-3.026c-0.373,0.634-0.562,1.325-0.562,2.068c0,0.703,0.165,1.353,0.496,1.953
	c0.33,0.601,0.771,1.086,1.334,1.459c-0.661-0.025-1.278-0.199-1.854-0.52v0.051c0,0.988,0.312,1.857,0.931,2.607
	c0.625,0.747,1.406,1.22,2.356,1.415c-0.355,0.09-0.718,0.14-1.079,0.14c-0.236,0-0.497-0.021-0.772-0.065
	c0.262,0.823,0.743,1.496,1.446,2.023c0.705,0.531,1.497,0.802,2.386,0.821c-1.489,1.165-3.186,1.75-5.088,1.75
	c-0.364,0-0.694-0.015-0.989-0.054c1.901,1.23,4.001,1.846,6.291,1.846c1.458,0,2.822-0.23,4.104-0.691
	c1.275-0.461,2.366-1.079,3.271-1.854c0.905-0.773,1.688-1.661,2.342-2.668c0.656-1.009,1.146-2.06,1.466-3.153
	c0.321-1.099,0.483-2.193,0.483-3.292c0-0.239-0.007-0.415-0.015-0.536C68.74,15.341,69.426,14.635,69.991,13.808z"/>
<g>
	<path fill="#818181" d="M101.493,22.732c-0.215-0.278-0.447-0.548-0.703-0.796c-0.255-0.24-0.512-0.459-0.77-0.666
		c-0.256-0.197-0.49-0.392-0.704-0.572c-0.209-0.189-0.383-0.383-0.519-0.582c-0.13-0.197-0.195-0.402-0.195-0.608
		c0-0.291,0.095-0.562,0.273-0.815c0.187-0.249,0.408-0.493,0.673-0.733c0.266-0.235,0.528-0.491,0.792-0.773
		c0.266-0.282,0.489-0.652,0.674-1.111c0.186-0.46,0.277-0.986,0.277-1.581c0-0.704-0.154-1.379-0.469-2.031
		c-0.317-0.647-0.758-1.153-1.324-1.514h1.621l1.63-0.95h-5.252c-0.744,0-1.495,0.079-2.247,0.242
		c-1.111,0.247-2.051,0.813-2.812,1.7c-0.761,0.887-1.143,1.887-1.143,3.009c0,1.188,0.429,2.174,1.28,2.958
		c0.853,0.783,1.875,1.175,3.068,1.175c0.242,0,0.521-0.021,0.845-0.061c-0.019,0.065-0.047,0.153-0.086,0.261
		c-0.039,0.107-0.07,0.195-0.097,0.256c-0.021,0.065-0.041,0.144-0.062,0.234c-0.018,0.095-0.025,0.187-0.025,0.284
		c0,0.527,0.261,1.127,0.771,1.792c-0.605,0.018-1.21,0.065-1.801,0.16c-0.595,0.094-1.217,0.234-1.863,0.432
		c-0.649,0.194-1.229,0.482-1.745,0.854c-0.51,0.374-0.895,0.818-1.152,1.329c-0.297,0.59-0.442,1.135-0.442,1.623
		c0,0.54,0.119,1.019,0.361,1.461c0.236,0.434,0.547,0.788,0.926,1.07c0.374,0.275,0.811,0.509,1.303,0.691
		c0.49,0.191,0.979,0.327,1.465,0.406s0.964,0.119,1.438,0.119c2.146,0,3.829-0.525,5.048-1.577
		c1.123-0.976,1.683-2.099,1.683-3.384c0-0.463-0.062-0.882-0.197-1.284C101.881,23.357,101.707,23.02,101.493,22.732z
		 M96.862,18.366c-0.407,0-0.799-0.104-1.168-0.312c-0.364-0.211-0.682-0.479-0.938-0.812c-0.255-0.333-0.479-0.709-0.674-1.127
		c-0.188-0.414-0.333-0.832-0.424-1.246c-0.095-0.418-0.139-0.816-0.139-1.19c0-0.771,0.201-1.432,0.608-1.983
		c0.41-0.555,0.985-0.829,1.732-0.829c0.529,0,1.008,0.165,1.437,0.49c0.432,0.33,0.766,0.744,1.009,1.25s0.432,1.026,0.564,1.57
		c0.13,0.539,0.195,1.05,0.195,1.534c0,0.8-0.174,1.445-0.521,1.927C98.202,18.123,97.636,18.366,96.862,18.366z M100.184,27.385
		c-0.225,0.383-0.521,0.677-0.897,0.891c-0.374,0.214-0.779,0.37-1.205,0.47c-0.43,0.1-0.884,0.143-1.354,0.143
		c-0.513,0-1.022-0.06-1.524-0.178c-0.506-0.12-0.986-0.3-1.452-0.548c-0.46-0.24-0.832-0.583-1.115-1.013
		c-0.284-0.429-0.428-0.907-0.428-1.455c0-0.482,0.106-0.911,0.328-1.287c0.216-0.374,0.489-0.68,0.83-0.898
		c0.334-0.229,0.728-0.409,1.175-0.56c0.447-0.141,0.881-0.241,1.299-0.297c0.418-0.057,0.842-0.081,1.277-0.081
		c0.264,0,0.462,0.005,0.599,0.021c0.05,0.025,0.168,0.115,0.368,0.254c0.194,0.134,0.326,0.229,0.395,0.273
		c0.067,0.042,0.192,0.139,0.373,0.273c0.184,0.137,0.312,0.237,0.386,0.31c0.078,0.064,0.188,0.165,0.332,0.31
		c0.142,0.129,0.248,0.246,0.314,0.353c0.068,0.098,0.154,0.219,0.255,0.36c0.1,0.148,0.168,0.287,0.212,0.42
		c0.04,0.128,0.079,0.275,0.109,0.432c0.038,0.156,0.057,0.316,0.057,0.486C100.516,26.575,100.406,27.012,100.184,27.385z"/>
	<polygon fill="#818181" points="106.91,13.075 106.91,9.999 105.369,9.999 105.369,13.075 102.294,13.075 102.294,14.615 
		105.369,14.615 105.369,17.692 106.91,17.692 106.91,14.615 109.986,14.615 109.986,13.075 	"/>
</g>
<path fill="#FFFFFF" d="M21.539,56.547v-1.723c0-0.259,0.012-0.458,0.036-0.601c0.023-0.144,0.077-0.281,0.163-0.418
	c0.087-0.14,0.223-0.23,0.412-0.287c0.188-0.054,0.444-0.078,0.761-0.078h1.72v-3.447h-2.754c-1.593,0-2.736,0.378-3.434,1.132
	C17.75,51.883,17.4,52.998,17.4,54.47v2.074h-2.062v3.447H17.4v9.999h4.14v-9.999h2.753l0.365-3.446H21.54L21.539,56.547
	L21.539,56.547z"/>
<path fill="#FFFFFF" d="M69.991,53.803c-0.787,0.339-1.574,0.548-2.359,0.636c0.889-0.535,1.489-1.287,1.804-2.26
	c-0.814,0.48-1.682,0.812-2.604,0.99c-0.812-0.863-1.811-1.297-2.995-1.297c-1.135,0-2.1,0.398-2.9,1.197
	c-0.796,0.801-1.197,1.768-1.197,2.896c0,0.309,0.033,0.619,0.102,0.94c-1.674-0.085-3.241-0.509-4.714-1.265
	c-1.466-0.756-2.712-1.767-3.732-3.024c-0.373,0.634-0.562,1.321-0.562,2.065c0,0.705,0.165,1.354,0.496,1.955
	c0.33,0.603,0.771,1.086,1.334,1.459c-0.661-0.023-1.278-0.199-1.854-0.521v0.05c0,0.988,0.312,1.857,0.931,2.607
	c0.625,0.748,1.406,1.219,2.356,1.414c-0.355,0.092-0.718,0.14-1.079,0.14c-0.236,0-0.497-0.021-0.772-0.063
	c0.262,0.823,0.743,1.496,1.446,2.022c0.705,0.53,1.497,0.802,2.386,0.821c-1.489,1.166-3.186,1.75-5.088,1.75
	c-0.364,0-0.694-0.015-0.989-0.055C51.9,67.491,54,68.108,56.29,68.108c1.458,0,2.822-0.229,4.104-0.69
	c1.275-0.461,2.366-1.079,3.271-1.854c0.905-0.771,1.688-1.657,2.342-2.668c0.656-1.008,1.146-2.06,1.466-3.149
	c0.321-1.101,0.483-2.194,0.483-3.292c0-0.239-0.007-0.415-0.015-0.536C68.74,55.336,69.426,54.63,69.991,53.803z"/>
<g>
	<path fill="#FFFFFF" d="M101.493,62.728c-0.215-0.275-0.447-0.547-0.703-0.795c-0.255-0.24-0.512-0.459-0.77-0.666
		c-0.256-0.199-0.49-0.393-0.704-0.572c-0.209-0.188-0.383-0.383-0.519-0.584c-0.13-0.194-0.195-0.399-0.195-0.605
		c0-0.291,0.095-0.562,0.273-0.812c0.187-0.25,0.408-0.494,0.673-0.734c0.266-0.234,0.528-0.491,0.792-0.773
		c0.266-0.281,0.489-0.65,0.674-1.109c0.186-0.459,0.277-0.986,0.277-1.58c0-0.704-0.154-1.383-0.469-2.031
		c-0.317-0.646-0.758-1.15-1.324-1.517h1.621L102.748,50h-5.252c-0.744,0-1.495,0.079-2.247,0.241
		c-1.111,0.247-2.051,0.812-2.812,1.699c-0.762,0.889-1.143,1.889-1.143,3.01c0,1.188,0.429,2.175,1.28,2.959
		c0.852,0.781,1.875,1.175,3.068,1.175c0.241,0,0.521-0.021,0.844-0.062c-0.018,0.064-0.046,0.151-0.085,0.263
		c-0.04,0.106-0.07,0.194-0.097,0.256c-0.021,0.063-0.041,0.144-0.062,0.233c-0.018,0.095-0.026,0.188-0.026,0.281
		c0,0.528,0.262,1.129,0.771,1.795c-0.606,0.017-1.211,0.062-1.801,0.158c-0.596,0.096-1.217,0.233-1.863,0.434
		c-0.65,0.192-1.229,0.48-1.745,0.854c-0.511,0.373-0.895,0.817-1.152,1.329c-0.297,0.591-0.442,1.135-0.442,1.623
		c0,0.54,0.119,1.019,0.361,1.461c0.236,0.437,0.547,0.788,0.926,1.067c0.374,0.275,0.811,0.512,1.303,0.691
		c0.49,0.191,0.979,0.327,1.465,0.406s0.964,0.119,1.438,0.119c2.146,0,3.829-0.526,5.048-1.577
		c1.123-0.978,1.683-2.099,1.683-3.384c0-0.461-0.062-0.881-0.198-1.284C101.881,63.353,101.707,63.017,101.493,62.728z
		 M96.862,58.36c-0.407,0-0.799-0.104-1.168-0.312c-0.364-0.211-0.682-0.479-0.938-0.812c-0.255-0.334-0.479-0.709-0.674-1.127
		c-0.188-0.414-0.333-0.832-0.424-1.248c-0.095-0.416-0.139-0.813-0.139-1.188c0-0.771,0.201-1.433,0.608-1.982
		c0.41-0.556,0.985-0.828,1.732-0.828c0.529,0,1.008,0.164,1.437,0.488c0.432,0.33,0.766,0.743,1.009,1.252
		c0.243,0.506,0.432,1.024,0.564,1.567c0.13,0.539,0.195,1.049,0.195,1.534c0,0.8-0.174,1.443-0.521,1.927
		C98.202,58.118,97.636,58.36,96.862,58.36z M100.184,67.38c-0.225,0.383-0.521,0.676-0.897,0.891
		c-0.374,0.215-0.779,0.371-1.205,0.473c-0.43,0.099-0.884,0.143-1.354,0.143c-0.513,0-1.022-0.06-1.524-0.177
		c-0.506-0.12-0.986-0.3-1.452-0.548c-0.46-0.239-0.832-0.583-1.115-1.014c-0.284-0.43-0.428-0.905-0.428-1.455
		c0-0.479,0.106-0.909,0.328-1.284c0.216-0.374,0.489-0.683,0.83-0.898c0.334-0.229,0.728-0.407,1.175-0.561
		c0.447-0.144,0.881-0.24,1.299-0.3c0.418-0.057,0.842-0.08,1.277-0.08c0.264,0,0.462,0.007,0.599,0.021
		c0.05,0.026,0.168,0.115,0.368,0.254c0.194,0.135,0.326,0.229,0.395,0.273c0.067,0.043,0.192,0.139,0.373,0.273
		c0.184,0.135,0.312,0.233,0.386,0.31c0.078,0.063,0.188,0.165,0.332,0.31c0.142,0.129,0.248,0.247,0.314,0.354
		c0.068,0.099,0.154,0.22,0.255,0.358c0.1,0.147,0.168,0.285,0.212,0.42c0.04,0.129,0.079,0.274,0.109,0.433
		c0.038,0.155,0.057,0.315,0.057,0.485C100.516,66.569,100.406,67.007,100.184,67.38z"/>
	<polygon fill="#FFFFFF" points="106.91,53.069 106.91,49.994 105.369,49.994 105.369,53.069 102.294,53.069 102.294,54.61 
		105.369,54.61 105.369,57.688 106.91,57.688 106.91,54.61 109.986,54.61 109.986,53.069 	"/>
</g>
<g>
	<path fill="#818181" d="M138.597,23.229c-0.526,2.758-1.169,5.403-3.072,6.785c-0.588-4.169,0.863-7.3,1.536-10.625
		c-1.147-1.932,0.139-5.823,2.561-4.864c2.98,1.179-2.581,7.186,1.151,7.936c3.896,0.784,5.489-6.763,3.072-9.216
		c-3.492-3.543-10.165-0.081-9.346,4.992c0.2,1.24,1.479,1.617,0.514,3.328c-2.235-0.495-2.902-2.258-2.816-4.608
		c0.139-3.847,3.456-6.54,6.784-6.912c4.209-0.471,8.159,1.545,8.704,5.503c0.612,4.469-1.898,9.309-6.399,8.961
		C140.065,24.414,139.552,23.81,138.597,23.229z"/>
</g>
<g>
	<path fill="#FFFFFF" d="M138.597,63.208c-0.526,2.758-1.169,5.402-3.072,6.785c-0.588-4.169,0.863-7.301,1.536-10.625
		c-1.147-1.932,0.139-5.822,2.561-4.864c2.98,1.179-2.581,7.187,1.151,7.937c3.896,0.783,5.489-6.764,3.072-9.217
		c-3.492-3.543-10.165-0.08-9.346,4.992c0.2,1.24,1.479,1.617,0.514,3.328c-2.235-0.496-2.902-2.258-2.816-4.607
		c0.139-3.847,3.456-6.541,6.784-6.912c4.209-0.472,8.159,1.545,8.704,5.502c0.612,4.472-1.898,9.312-6.399,8.961
		C140.065,64.394,139.552,63.789,138.597,63.208z"/>
</g>
<g>
	<path fill="#818181" d="M179.901,11.231l9.728,6.065h-19.454L179.901,11.231z M189.75,26.983L189.75,26.983
		c-0.001,0.973-0.789,1.761-1.763,1.761h-16.173c-0.974,0-1.761-0.789-1.761-1.761v-9.3c0-0.102,0.011-0.202,0.025-0.301
		l9.295,5.795c0.011,0.007,0.022,0.012,0.036,0.019c0.012,0.007,0.022,0.013,0.035,0.019c0.066,0.034,0.135,0.061,0.203,0.079
		c0.006,0.002,0.015,0.002,0.021,0.004c0.075,0.018,0.15,0.03,0.229,0.03h0.001h0.001c0.077,0,0.153-0.011,0.229-0.03
		c0.009-0.002,0.016-0.002,0.021-0.004c0.067-0.018,0.138-0.045,0.202-0.079c0.014-0.006,0.023-0.012,0.038-0.019
		c0.012-0.007,0.022-0.012,0.034-0.019l9.293-5.795c0.019,0.099,0.027,0.199,0.027,0.301v9.3H189.75z"/>
</g>
<g>
	<path fill="#FFFFFF" d="M179.901,51.185l9.728,6.064h-19.454L179.901,51.185z M189.75,66.937L189.75,66.937
		c-0.001,0.974-0.789,1.762-1.763,1.762h-16.173c-0.974,0-1.761-0.788-1.761-1.762v-9.302c0-0.103,0.011-0.202,0.025-0.302
		l9.295,5.796c0.011,0.007,0.022,0.013,0.036,0.021c0.012,0.007,0.022,0.014,0.035,0.02c0.066,0.034,0.135,0.062,0.203,0.079
		c0.006,0.002,0.015,0.002,0.021,0.004c0.075,0.021,0.15,0.03,0.229,0.03h0.001h0.001c0.077,0,0.153-0.012,0.229-0.03
		c0.009-0.002,0.016-0.002,0.021-0.004c0.067-0.019,0.138-0.045,0.202-0.079c0.014-0.006,0.023-0.013,0.038-0.02
		c0.012-0.008,0.022-0.014,0.034-0.021l9.293-5.796c0.019,0.1,0.027,0.199,0.027,0.302v9.302H189.75z"/>
</g>
<g>
	<g>
		<rect x="214.329" y="24.43" fill="#818181" width="5.461" height="1.092"/>
		<path fill="#818181" d="M213.238,12.417h8.736v2.184h1.093v-2.184c0-0.603-0.489-1.092-1.093-1.092h-8.736
			c-0.604,0-1.093,0.49-1.093,1.092v2.184h1.093V12.417z"/>
		<rect x="214.329" y="22.246" fill="#818181" width="6.553" height="1.092"/>
		<path fill="#818181" d="M225.251,15.693h-15.29c-0.604,0-1.092,0.489-1.092,1.092v6.553c0,0.604,0.488,1.092,1.092,1.092h2.185
			v3.277c0,0.604,0.488,1.092,1.093,1.092h8.736c0.604,0,1.093-0.488,1.093-1.092V24.43h2.185c0.604,0,1.093-0.488,1.093-1.092
			v-6.553C226.343,16.183,225.854,15.693,225.251,15.693z M221.974,27.707h-8.736v-6.553h8.736V27.707L221.974,27.707z
			 M224.158,18.97c-0.604,0-1.092-0.489-1.092-1.092s0.488-1.092,1.092-1.092c0.604,0,1.093,0.49,1.093,1.092
			C225.251,18.481,224.762,18.97,224.158,18.97z"/>
	</g>
</g>
<g>
	<g>
		<rect x="214.329" y="64.366" fill="#FFFFFF" width="5.461" height="1.092"/>
		<path fill="#FFFFFF" d="M213.238,52.353h8.736v2.186h1.093v-2.186c0-0.602-0.489-1.092-1.093-1.092h-8.736
			c-0.604,0-1.093,0.49-1.093,1.092v2.186h1.093V52.353z"/>
		<rect x="214.329" y="62.183" fill="#FFFFFF" width="6.553" height="1.092"/>
		<path fill="#FFFFFF" d="M225.251,55.63h-15.29c-0.604,0-1.092,0.488-1.092,1.092v6.553c0,0.604,0.488,1.093,1.092,1.093h2.185
			v3.276c0,0.604,0.488,1.092,1.093,1.092h8.736c0.604,0,1.093-0.487,1.093-1.092v-3.276h2.185c0.604,0,1.093-0.488,1.093-1.093
			v-6.553C226.343,56.118,225.854,55.63,225.251,55.63z M221.974,67.644h-8.736V61.09h8.736V67.644L221.974,67.644z M224.158,58.905
			c-0.604,0-1.092-0.488-1.092-1.092s0.488-1.092,1.092-1.092c0.604,0,1.093,0.488,1.093,1.092S224.762,58.905,224.158,58.905z"/>
	</g>
</g>
</svg>
